<mxfile host="app.diagrams.net" modified="2024-06-28T20:01:13.941Z" agent="Mozilla/5.0 (X11; Linux x86_64) AppleWebKit/537.36 (KHTML, like Gecko) Chrome/125.0.0.0 Safari/537.36" version="24.6.4" etag="l6HS4Id45KNP6ZrxNSje" type="github">
  <diagram name="PÃ¡gina-1" id="h54N0nG5ArVhRPm-0PMu">
    <mxGraphModel>
      <root>
        <mxCell id="0" />
        <mxCell id="1" parent="0" />
      </root>
    </mxGraphModel>
  </diagram>
</mxfile>
